<?xml version="1.0" encoding="UTF-8"?>
<svg width="510.01" height="510.01" version="1.1" viewBox="0 0 510.01 510.01" xmlns="http://www.w3.org/2000/svg">
 <g transform="translate(-99.979 -40.995)">
  <g transform="matrix(2.594 0 0 -2.594 340.24 69.8)">
   <path d="m-68.408 8.7609v-134.03c0.0697-8.3637 3.6243-23.976 26.027-34.65 9.1503-4.3611 16.927-7.0096 23.787-9.3395 10.385-3.5446 17.892-6.1035 23-12.346l1.2745-1.5632 1.2745 1.5632c5.1079 6.2429 12.605 8.8018 23 12.346 6.8603 2.3299 14.637 4.9784 23.787 9.3395 22.403 10.674 25.957 26.286 26.027 34.65v134.03z" fill="#fc0"/>
   <path transform="translate(67.365,-10.006)" d="m0 0s4.98-3.39 4.98-14.44v-114.83l-8.04 6.71v88.65l-2.7-2.37v-84.01l-7.5 6.25v72.56l-2.71-1.53v-68.77l-7.72 6.45v58.74l-2.7-1v-55.48l-8.04 6.71v46.42l-2.71-0.55v-43.6l-8.13 6.78 0.03 36.02h-0.69l-5.54-33.36 21.8-22.74h-5.99l8.85-13.76c1.93 0.96 8.85 4.4 12.28 6.4l3.92-3.87c0.38-1.75 0.32-5.8 0.32-5.8 0-0.11-0.07-0.14-0.15-0.07l-3.49 2.96-0.05-0.74c-2.78-0.65-6.61-1.69-8.6-2.24 1.14-0.77 3.07-2.02 5.43-3.37 2.41-1.37 5.26-2.86 8.17-4.03-0.02-0.1-0.11-0.53-0.37-1.22-0.46-1.24-1.4-3.31-3.3-5.89l-1.74-2.29c-0.06-0.08-0.1-0.07-0.1 0.04l0.14 6.41-2.19-1.63c-3.17 3.62-7.2 6.97-9.12 8.5 0.22-2.94 0.74-9.76 1.18-14.01 0 0-2-1.73-7.24-3.59 0 0-0.14-0.05-0.09 0.1l1.02 2s0.75 1.52 1.2 3.18l-3.6-0.3c0.66 2.55 2.27 8.99 2.76 13.22-0.13-0.05-0.26-0.1-0.41-0.17-1.71-0.72-4.75-2.02-7.72-3.43l-0.01 0.01h-0.01l-0.85 0.67-0.49 0.4 0.21-5.18c0-0.1-0.06-0.14-0.13-0.07 0 0-3.24 2.87-4.09 3.61 0.01 1.2-0.3 6.61-0.3 6.61 4.14 0.55 9.52 1.56 11.9 2.02l-10.06 9.38v-6.59s-9.12 13.9-10.27 15.57c-0.13-1.4-0.78-10.17 0.65-19.83 1.6-10.85 5.1-20.29 18.23-18.72-5.01-11.42-17.49-6.93-19.69-4.22-3.92-6.96-8.17-9.59-8.22-9.62-0.04 0.03-4.28 2.66-8.2 9.62-2.2-2.71-14.67-7.2-19.69 4.22 13.12-1.57 16.62 7.87 18.22 18.72 1.43 9.66 0.78 18.43 0.65 19.83-1.14-1.67-10.26-15.57-10.26-15.57v6.59l-10.07-9.38c2.38-0.46 7.76-1.47 11.91-2.02 0 0-0.32-5.41-0.31-6.61-0.85-0.74-4.09-3.61-4.09-3.61-0.06-0.07-0.13-0.03-0.13 0.07l0.22 5.18-0.5-0.4-0.85-0.67-0.02-0.01c-2.96 1.41-6.01 2.71-7.72 3.43-0.14 0.07-0.28 0.12-0.4 0.17 0.48-4.23 2.09-10.67 2.75-13.22l-3.59 0.3c0.44-1.66 1.2-3.18 1.2-3.18h0.01l1-2c0.05-0.15-0.08-0.1-0.08-0.1-5.25 1.86-7.25 3.59-7.25 3.59 0.44 4.25 0.97 11.07 1.2 14.01-1.94-1.53-5.97-4.88-9.14-8.5l-2.18 1.63 0.14-6.41c0-0.11-0.05-0.12-0.11-0.04l-1.74 2.29c-1.9 2.58-2.84 4.65-3.29 5.89-0.26 0.69-0.36 1.12-0.38 1.22 2.91 1.17 5.76 2.66 8.17 4.03 2.36 1.35 4.3 2.6 5.44 3.37-1.99 0.55-5.83 1.59-8.61 2.24l-0.05 0.74-3.49-2.96c-0.08-0.07-0.14-0.04-0.15 0.07 0 0-0.06 4.05 0.32 5.8l3.92 3.87c3.43-2 10.36-5.44 12.29-6.4l8.86 13.76h-6l21.8 22.74-5.55 33.36h-0.69l0.04-36.02-8.14-6.78v43.6l-2.7 0.55v-46.42l-8.04-6.71v55.48l-2.71 1v-58.74l-7.71-6.45v68.77l-2.72 1.53v-72.56l-7.5-6.25v84.01l-2.7 2.37v-88.65l-8.03-6.71v114.83c0 11.05 4.97 14.44 4.97 14.44s-5.99 2.78-6.07 8.45c3.09-1.94 6.75-2.92 9.46-2.43 7.45 1.37 19.76 7.82 27.52-6.58-3.83-10.07-13.9-11.37-20.03-4.05-3.99-5.65-2.62-16.08 8.65-23.15 10.62-6.66 23.65-7.03 25.69-6.99 0.19 2.06 0.39 8.9 6.47 14.73 2.72 2.63 4.99 8.05 4.9 11.69 0 0-8.84-1.03-12.58 3.91-0.01 0.03-0.01 0.04 0 0.06 0.01 0.01 0.03 0.02 0.04 0.02 0.86-0.17 1.43-0.22 2.15-0.25-1.42 0.62-6.49 2.4-7.88 6.98-0.01 0.06 0.04 0.09 0.07 0.07 6.71-4.19 13.75-5.09 16.32-5.39 0.37-0.04-0.03 0.68-0.07 0.74-1.66 2.63-3.53 3.52-5.38 3.52-2.22-0.01-2.98-1.79-2.98-1.79-1.06 0.78-3.26 2.55-3.39 7.05-0.14 4.87 3.27 7.17 7.06 7.1 1.69-0.02 3.43-0.4 4.6-1.03 0.03 0.93 0.43 1.62 0.43 1.62s3.21-1.04 6.76-2.53c5.57-2.34 11.14-4.56 15.65-4.56 0.21 0 0.34-0.17 0.21-0.33-2.19-2.65-6.08-3.5-6.08-3.5 6.03-14.25 6.41-30.54 6.66-38.1 0.01 0 0.01 0 0.01-0.01 2.17-0.03 15.1 0.37 25.65 6.99 11.27 7.07 12.64 17.5 8.65 23.15-6.13-7.32-16.18-6.02-20.03 4.05 7.76 14.4 20.07 7.95 27.52 6.58 2.72-0.49 6.37 0.49 9.46 2.43-0.08-5.67-6.07-8.45-6.07-8.45m11.07-115.41c-0.05-6.55-2.36-22.45-25.2-33.33-23.39-11.14-38.66-11.35-47.56-22.22-8.87 10.87-24.16 11.08-47.55 22.22-22.83 10.88-25.14 26.78-25.2 33.33v132.94h145.51zm-147.16 134.59v-134.61c0.07-8.39 3.63-24.08 26.14-34.8 9.18-4.36 16.99-7.03 23.89-9.38 10.43-3.56 17.97-6.12 23.1-12.4l1.27-1.56 1.3 1.56c5.11 6.28 12.65 8.84 23.08 12.4 6.9 2.35 14.72 5.02 23.89 9.38 22.51 10.72 26.07 26.41 26.15 34.8v134.61z"/>
   <path transform="translate(36.511 -133.94)" d="m0 0c-0.08-0.02-6.65-1.34-11.99-2.09l0.07-1.48 0.93 0.82 3.48-2.81c4.22 1.98 8.38 3.67 8.43 3.69l0.17 0.08c0.36 0.14 0.74-0.15 0.72-0.53l-0.02-0.19c-0.26-3.56-1.58-9.27-2.44-12.71l4.5 0.37 1.03-1.04c-0.52 5.6-1.06 13.08-1.07 13.17l-0.03 0.44c-0.03 0.37 0.4 0.61 0.7 0.39l0.35-0.27c0.06-0.03 5.36-4.03 9.66-8.69 1.97 1.61 2.6 2.18 2.6 2.18s1.23 0.16 2.43 0.31c-6.93 3.1-13.04 7.45-13.11 7.5l-0.26 0.19c-0.33 0.23-0.24 0.75 0.16 0.86l0.3 0.09c0.06 0.01 5.14 1.45 9.02 2.39l0.25 3.91 1.2 0.01s-0.52 0.53-0.99 0.99c-4.25-2.39-11.64-6.02-12-6.2-0.3-0.14-0.64-0.04-0.81 0.23l-9.6 14.91h-5.22v-4.38l12.06-11.25c0.29-0.27 0.15-0.75-0.24-0.83zm-10.97-4.04-1.17-1.04 0.05-2.08 2.15-1.91-0.17 4.35zm16.15-13.69c-0.81 0.91-1.69 1.86-1.69 1.86l-1.11-0.1s-0.04-0.15-0.09-0.32c-0.47-1.96-1.27-3.55-1.27-3.55s2.97 1.15 4.16 2.11m12.39 8.12-0.18-4.9s2.42 3.37 3.02 5.27c-0.05-0.01-2.84-0.37-2.84-0.37m-0.74 15.2 1.84-0.12s0.31-0.35 0.66-0.75c0.21-1.33 0.23-3.25 0.23-3.25l-2.88 2.44zm-78.77-5.53c-0.39 0.08-0.53 0.56-0.24 0.83l12.06 11.25v4.38h-5.23l-9.59-14.91c-0.17-0.27-0.52-0.37-0.81-0.23-0.36 0.18-7.74 3.81-12 6.2-0.47-0.46-1-0.99-1-0.99l1.2-0.01 0.26-3.91c3.87-0.94 8.96-2.38 9.02-2.39l0.3-0.09c0.4-0.11 0.49-0.63 0.15-0.86l-0.25-0.19c-0.07-0.05-6.2-4.4-13.11-7.5 1.2-0.15 2.42-0.31 2.42-0.31s0.64-0.57 2.6-2.18c4.3 4.66 9.61 8.66 9.67 8.69l0.35 0.27c0.3 0.22 0.72-0.02 0.7-0.39l-0.03-0.44c-0.01-0.09-0.55-7.57-1.07-13.17l1.03 1.04 4.5-0.37c-0.87 3.44-2.18 9.15-2.44 12.71l-0.02 0.19c-0.02 0.38 0.36 0.67 0.72 0.53l0.17-0.08c0.05-0.02 4.21-1.71 8.43-3.69l3.48 2.81 0.93-0.82 0.07 1.48c-5.34 0.75-11.92 2.07-11.99 2.09zm10.39-4.78-0.18-4.35 2.16 1.91 0.05 2.08-1.17 1.04zm-11.13-15.12s-0.81 1.59-1.28 3.55c-0.04 0.17-0.08 0.32-0.08 0.32l-1.12 0.1s-0.87-0.95-1.68-1.86c1.18-0.96 4.16-2.11 4.16-2.11m-19.39 10.6c0.6-1.9 3.01-5.27 3.01-5.27l-0.17 4.9s-2.79 0.36-2.84 0.37m3.73 13.15-2.88-2.44s0.03 1.92 0.23 3.25c0.35 0.4 0.65 0.76 0.65 0.76l1.85 0.11zm36.88 115.34c1.78 0 3.95 0.27 4.41 0.47 0.29 0.12 0.13 0.19-0.03 0.21-6.85 0.71-11.35 2.31-14.96 4.23 1.51-1.77 4.45-3.57 8.7-4.74 0.45-0.13 1.13-0.17 1.88-0.17m9.18-1.66c-1.21-0.48-4.44-0.92-6.1-0.92-3.91 0-6.51 1.45-6.91 1.62 4.28-0.5 8.51 0.03 10.03 0.86-1.99 5.34-5.37 7.43-8 7.43-1.23 0-2.31-0.46-3-1.26-1.42 1.2-2.03 3.64-2.06 5.15-0.09 4.53 2.93 5.84 5.76 5.84 2 0 3.92-0.66 4.56-1.28-0.04-2.94 0.72-5.46 2.42-8.52 1.4-2.52 3-4.62 3.3-8.92" fill="#f00"/>
   <path d="m0 0c0.34-2.52 1.15-4.55 1.39-4.62 0.36-0.11 2.7 1.77 3.1 2.39 0.14 0.21-1.46 0.94-1.61 0.66-0.4-0.72-0.91-1.76-1.16-2.18-0.07-0.13-0.21-0.11-0.23 0.06-0.1 1.55-0.16 2.44-0.22 3.14-0.02 0.18-1.33 1-1.27 0.55" fill="#fff"/>
  </g>
 </g>
</svg>
